<?xml version="1.0" encoding="utf-8" standalone="no"?>
<!DOCTYPE svg PUBLIC "-//W3C//DTD SVG 1.1//EN"
  "http://www.w3.org/Graphics/SVG/1.1/DTD/svg11.dtd">
<svg xmlns:xlink="http://www.w3.org/1999/xlink" width="720pt" height="612pt" viewBox="0 0 720 612" xmlns="http://www.w3.org/2000/svg" version="1.1">
 <metadata>
  <rdf:RDF xmlns:dc="http://purl.org/dc/elements/1.1/" xmlns:cc="http://creativecommons.org/ns#" xmlns:rdf="http://www.w3.org/1999/02/22-rdf-syntax-ns#">
   <cc:Work>
    <dc:type rdf:resource="http://purl.org/dc/dcmitype/StillImage"/>
    <dc:format>image/svg+xml</dc:format>
    <dc:creator>
     <cc:Agent>
      <dc:title>Matplotlib v3.10.3, https://matplotlib.org/</dc:title>
     </cc:Agent>
    </dc:creator>
   </cc:Work>
  </rdf:RDF>
 </metadata>
 <defs>
  <style type="text/css">*{stroke-linejoin: round; stroke-linecap: butt}</style>
 </defs>
 <g id="figure_1">
  <g id="patch_1">
   <path d="M 0 612
L 720 612
L 720 0
L 0 0
L 0 612
z
" style="fill: none"/>
  </g>
  <g id="axes_1">
   <g id="patch_2">
    <path d="M 554.4 293.76
C 554.4 268.231626 549.371467 242.951483 539.602181 219.366341
C 529.832895 195.781198 515.512845 174.349728 497.461558 156.298442
C 479.410272 138.247155 457.978802 123.927105 434.393659 114.157819
C 410.808517 104.388533 385.528374 99.36 360 99.36
C 334.471626 99.36 309.191483 104.388533 285.606341 114.157819
C 262.021198 123.927105 240.589728 138.247155 222.538442 156.298442
C 204.487155 174.349728 190.167105 195.781198 180.397819 219.366341
C 170.628533 242.951483 165.6 268.231626 165.6 293.76
C 165.6 319.288374 170.628533 344.568517 180.397819 368.153659
C 190.167105 391.738802 204.487155 413.170272 222.538442 431.221558
C 240.589728 449.272845 262.021198 463.592895 285.606341 473.362181
C 309.191483 483.131467 334.471626 488.16 360 488.16
C 385.528374 488.16 410.808517 483.131467 434.393659 473.362181
C 457.978802 463.592895 479.410272 449.272845 497.461558 431.221558
C 515.512845 413.170272 529.832895 391.738802 539.602181 368.153659
C 549.371467 344.568517 554.4 319.288374 554.4 293.76
M 360 293.76
C 360 293.76 360 293.76 360 293.76
C 360 293.76 360 293.76 360 293.76
C 360 293.76 360 293.76 360 293.76
C 360 293.76 360 293.76 360 293.76
C 360 293.76 360 293.76 360 293.76
C 360 293.76 360 293.76 360 293.76
C 360 293.76 360 293.76 360 293.76
C 360 293.76 360 293.76 360 293.76
C 360 293.76 360 293.76 360 293.76
C 360 293.76 360 293.76 360 293.76
C 360 293.76 360 293.76 360 293.76
C 360 293.76 360 293.76 360 293.76
C 360 293.76 360 293.76 360 293.76
C 360 293.76 360 293.76 360 293.76
C 360 293.76 360 293.76 360 293.76
C 360 293.76 360 293.76 360 293.76
L 360 293.76
z
" style="fill: none"/>
   </g>
   <g id="patch_3">
    <path d="M 360 140.184
L 471.535412 229.365
L 402.088835 318.06
L 360 352.08
L 360 293.76
L 317.911165 269.46
z
" clip-path="url(#p478c185e37)" style="fill: #237569; opacity: 0.045; stroke: #237569; stroke-linejoin: miter"/>
   </g>
   <g id="patch_4">
    <path d="M 360 202.392
L 456.80432 237.87
L 404.894757 319.68
L 360 410.4
L 360 293.76
L 275.822331 245.16
z
" clip-path="url(#p478c185e37)" style="fill: #c26a40; opacity: 0.045; stroke: #c26a40; stroke-linejoin: miter"/>
   </g>
   <g id="patch_5">
    <path d="M 360 283.394592
L 361.119563 293.11362
L 405.641132 320.11092
L 360 340.416
L 359.43601 294.08562
L 298.828088 258.44238
z
" clip-path="url(#p478c185e37)" style="fill: #6374a4; opacity: 0.045; stroke: #6374a4; stroke-linejoin: miter"/>
   </g>
   <g id="matplotlib.axis_1">
    <g id="xtick_1">
     <g id="line2d_1">
      <path d="M 360 293.76
L 360 99.36
" clip-path="url(#p478c185e37)" style="fill: none; stroke: #d3d8cd; stroke-width: 0.8; stroke-linecap: square"/>
     </g>
    </g>
    <g id="xtick_2">
     <g id="line2d_2">
      <path d="M 360 293.76
L 528.355338 196.56
" clip-path="url(#p478c185e37)" style="fill: none; stroke: #d3d8cd; stroke-width: 0.8; stroke-linecap: square"/>
     </g>
    </g>
    <g id="xtick_3">
     <g id="line2d_3">
      <path d="M 360 293.76
L 528.355338 390.96
" clip-path="url(#p478c185e37)" style="fill: none; stroke: #d3d8cd; stroke-width: 0.8; stroke-linecap: square"/>
     </g>
    </g>
    <g id="xtick_4">
     <g id="line2d_4">
      <path d="M 360 293.76
L 360 488.16
" clip-path="url(#p478c185e37)" style="fill: none; stroke: #d3d8cd; stroke-width: 0.8; stroke-linecap: square"/>
     </g>
    </g>
    <g id="xtick_5">
     <g id="line2d_5">
      <path d="M 360 293.76
L 191.644662 390.96
" clip-path="url(#p478c185e37)" style="fill: none; stroke: #d3d8cd; stroke-width: 0.8; stroke-linecap: square"/>
     </g>
    </g>
    <g id="xtick_6">
     <g id="line2d_6">
      <path d="M 360 293.76
L 191.644662 196.56
" clip-path="url(#p478c185e37)" style="fill: none; stroke: #d3d8cd; stroke-width: 0.8; stroke-linecap: square"/>
     </g>
    </g>
   </g>
   <g id="matplotlib.axis_2">
    <g id="ytick_1">
     <g id="line2d_7">
      <path d="M 360 254.88
C 365.105675 254.88 370.161703 255.885707 374.878732 257.839564
C 379.59576 259.793421 383.882054 262.657431 387.492312 266.267688
C 391.102569 269.877946 393.966579 274.16424 395.920436 278.881268
C 397.874293 283.598297 398.88 288.654325 398.88 293.76
C 398.88 298.865675 397.874293 303.921703 395.920436 308.638732
C 393.966579 313.35576 391.102569 317.642054 387.492312 321.252312
C 383.882054 324.862569 379.59576 327.726579 374.878732 329.680436
C 370.161703 331.634293 365.105675 332.64 360 332.64
C 354.894325 332.64 349.838297 331.634293 345.121268 329.680436
C 340.40424 327.726579 336.117946 324.862569 332.507688 321.252312
C 328.897431 317.642054 326.033421 313.35576 324.079564 308.638732
C 322.125707 303.921703 321.12 298.865675 321.12 293.76
C 321.12 288.654325 322.125707 283.598297 324.079564 278.881268
C 326.033421 274.16424 328.897431 269.877946 332.507688 266.267688
C 336.117946 262.657431 340.40424 259.793421 345.121268 257.839564
C 349.838297 255.885707 354.894325 254.88 360 254.88
" clip-path="url(#p478c185e37)" style="fill: none; stroke: #d3d8cd; stroke-width: 0.8; stroke-linecap: square"/>
     </g>
     <g id="text_1">
      <text style="font-size: 9px; font-family: 'DejaVu Sans', 'Bitstream Vera Sans', 'Computer Modern Sans Serif', 'Lucida Grande', 'Verdana', 'Geneva', 'Lucid', 'Arial', 'Helvetica', 'Avant Garde', sans-serif; text-anchor: start; fill: #667060" x="366.751441" y="253.598956" transform="rotate(-0 366.751441 253.598956)">20%</text>
     </g>
    </g>
    <g id="ytick_2">
     <g id="line2d_8">
      <path d="M 360 216
C 370.21135 216 380.323407 218.011413 389.757464 221.919128
C 399.191521 225.826842 407.764109 231.554862 414.984623 238.775377
C 422.205138 245.995891 427.933158 254.568479 431.840872 264.002536
C 435.748587 273.436593 437.76 283.54865 437.76 293.76
C 437.76 303.97135 435.748587 314.083407 431.840872 323.517464
C 427.933158 332.951521 422.205138 341.524109 414.984623 348.744623
C 407.764109 355.965138 399.191521 361.693158 389.757464 365.600872
C 380.323407 369.508587 370.21135 371.52 360 371.52
C 349.78865 371.52 339.676593 369.508587 330.242536 365.600872
C 320.808479 361.693158 312.235891 355.965138 305.015377 348.744623
C 297.794862 341.524109 292.066842 332.951521 288.159128 323.517464
C 284.251413 314.083407 282.24 303.97135 282.24 293.76
C 282.24 283.54865 284.251413 273.436593 288.159128 264.002536
C 292.066842 254.568479 297.794862 245.995891 305.015377 238.775377
C 312.235891 231.554862 320.808479 225.826842 330.242536 221.919128
C 339.676593 218.011413 349.78865 216 360 216
" clip-path="url(#p478c185e37)" style="fill: none; stroke: #d3d8cd; stroke-width: 0.8; stroke-linecap: square"/>
     </g>
     <g id="text_2">
      <text style="font-size: 9px; font-family: 'DejaVu Sans', 'Bitstream Vera Sans', 'Computer Modern Sans Serif', 'Lucida Grande', 'Verdana', 'Geneva', 'Lucid', 'Arial', 'Helvetica', 'Avant Garde', sans-serif; text-anchor: start; fill: #667060" x="373.502882" y="215.30963" transform="rotate(-0 373.502882 215.30963)">40%</text>
     </g>
    </g>
    <g id="ytick_3">
     <g id="line2d_9">
      <path d="M 360 177.12
C 375.317024 177.12 390.48511 180.13712 404.636196 185.998691
C 418.787281 191.860263 431.646163 200.452293 442.476935 211.283065
C 453.307707 222.113837 461.899737 234.972719 467.761309 249.123804
C 473.62288 263.27489 476.64 278.442976 476.64 293.76
C 476.64 309.077024 473.62288 324.24511 467.761309 338.396196
C 461.899737 352.547281 453.307707 365.406163 442.476935 376.236935
C 431.646163 387.067707 418.787281 395.659737 404.636196 401.521309
C 390.48511 407.38288 375.317024 410.4 360 410.4
C 344.682976 410.4 329.51489 407.38288 315.363804 401.521309
C 301.212719 395.659737 288.353837 387.067707 277.523065 376.236935
C 266.692293 365.406163 258.100263 352.547281 252.238691 338.396196
C 246.37712 324.24511 243.36 309.077024 243.36 293.76
C 243.36 278.442976 246.37712 263.27489 252.238691 249.123804
C 258.100263 234.972719 266.692293 222.113837 277.523065 211.283065
C 288.353837 200.452293 301.212719 191.860263 315.363804 185.998691
C 329.51489 180.13712 344.682976 177.12 360 177.12
" clip-path="url(#p478c185e37)" style="fill: none; stroke: #d3d8cd; stroke-width: 0.8; stroke-linecap: square"/>
     </g>
     <g id="text_3">
      <text style="font-size: 9px; font-family: 'DejaVu Sans', 'Bitstream Vera Sans', 'Computer Modern Sans Serif', 'Lucida Grande', 'Verdana', 'Geneva', 'Lucid', 'Arial', 'Helvetica', 'Avant Garde', sans-serif; text-anchor: start; fill: #667060" x="380.254323" y="177.020305" transform="rotate(-0 380.254323 177.020305)">60%</text>
     </g>
    </g>
    <g id="ytick_4">
     <g id="line2d_10">
      <path d="M 360 138.24
C 380.422699 138.24 400.646814 142.262826 419.514927 150.078255
C 438.383041 157.893684 455.528217 169.349724 469.969247 183.790753
C 484.410276 198.231783 495.866316 215.376959 503.681745 234.245073
C 511.497174 253.113186 515.52 273.337301 515.52 293.76
C 515.52 314.182699 511.497174 334.406814 503.681745 353.274927
C 495.866316 372.143041 484.410276 389.288217 469.969247 403.729247
C 455.528217 418.170276 438.383041 429.626316 419.514927 437.441745
C 400.646814 445.257174 380.422699 449.28 360 449.28
C 339.577301 449.28 319.353186 445.257174 300.485073 437.441745
C 281.616959 429.626316 264.471783 418.170276 250.030753 403.729247
C 235.589724 389.288217 224.133684 372.143041 216.318255 353.274927
C 208.502826 334.406814 204.48 314.182699 204.48 293.76
C 204.48 273.337301 208.502826 253.113186 216.318255 234.245073
C 224.133684 215.376959 235.589724 198.231783 250.030753 183.790753
C 264.471783 169.349724 281.616959 157.893684 300.485073 150.078255
C 319.353186 142.262826 339.577301 138.24 360 138.24
" clip-path="url(#p478c185e37)" style="fill: none; stroke: #d3d8cd; stroke-width: 0.8; stroke-linecap: square"/>
     </g>
     <g id="text_4">
      <text style="font-size: 9px; font-family: 'DejaVu Sans', 'Bitstream Vera Sans', 'Computer Modern Sans Serif', 'Lucida Grande', 'Verdana', 'Geneva', 'Lucid', 'Arial', 'Helvetica', 'Avant Garde', sans-serif; text-anchor: start; fill: #667060" x="387.005765" y="138.73098" transform="rotate(-0 387.005765 138.73098)">80%</text>
     </g>
    </g>
    <g id="ytick_5">
     <g id="line2d_11">
      <path d="M 360 99.36
C 385.528374 99.36 410.808517 104.388533 434.393659 114.157819
C 457.978802 123.927105 479.410272 138.247155 497.461558 156.298442
C 515.512845 174.349728 529.832895 195.781198 539.602181 219.366341
C 549.371467 242.951483 554.4 268.231626 554.4 293.76
C 554.4 319.288374 549.371467 344.568517 539.602181 368.153659
C 529.832895 391.738802 515.512845 413.170272 497.461558 431.221558
C 479.410272 449.272845 457.978802 463.592895 434.393659 473.362181
C 410.808517 483.131467 385.528374 488.16 360 488.16
C 334.471626 488.16 309.191483 483.131467 285.606341 473.362181
C 262.021198 463.592895 240.589728 449.272845 222.538442 431.221558
C 204.487155 413.170272 190.167105 391.738802 180.397819 368.153659
C 170.628533 344.568517 165.6 319.288374 165.6 293.76
C 165.6 268.231626 170.628533 242.951483 180.397819 219.366341
C 190.167105 195.781198 204.487155 174.349728 222.538442 156.298442
C 240.589728 138.247155 262.021198 123.927105 285.606341 114.157819
C 309.191483 104.388533 334.471626 99.36 360 99.36
" clip-path="url(#p478c185e37)" style="fill: none; stroke: #d3d8cd; stroke-width: 0.8; stroke-linecap: square"/>
     </g>
     <g id="text_5">
      <text style="font-size: 9px; font-family: 'DejaVu Sans', 'Bitstream Vera Sans', 'Computer Modern Sans Serif', 'Lucida Grande', 'Verdana', 'Geneva', 'Lucid', 'Arial', 'Helvetica', 'Avant Garde', sans-serif; text-anchor: start; fill: #667060" x="393.757206" y="100.441654" transform="rotate(-0 393.757206 100.441654)">100%</text>
     </g>
    </g>
   </g>
   <g id="line2d_12">
    <path d="M 360 140.184
L 471.535412 229.365
L 402.088835 318.06
L 360 352.08
L 360 293.76
L 317.911165 269.46
L 360 140.184
" clip-path="url(#p478c185e37)" style="fill: none; stroke: #237569; stroke-width: 2.5; stroke-linecap: square"/>
    <defs>
     <path id="me88e505b13" d="M 0 2.5
C 0.663008 2.5 1.29895 2.236584 1.767767 1.767767
C 2.236584 1.29895 2.5 0.663008 2.5 0
C 2.5 -0.663008 2.236584 -1.29895 1.767767 -1.767767
C 1.29895 -2.236584 0.663008 -2.5 0 -2.5
C -0.663008 -2.5 -1.29895 -2.236584 -1.767767 -1.767767
C -2.236584 -1.29895 -2.5 -0.663008 -2.5 0
C -2.5 0.663008 -2.236584 1.29895 -1.767767 1.767767
C -1.29895 2.236584 -0.663008 2.5 0 2.5
z
" style="stroke: #237569"/>
    </defs>
    <g clip-path="url(#p478c185e37)">
     <use xlink:href="#me88e505b13" x="360" y="140.184" style="fill: #237569; stroke: #237569"/>
     <use xlink:href="#me88e505b13" x="471.535412" y="229.365" style="fill: #237569; stroke: #237569"/>
     <use xlink:href="#me88e505b13" x="402.088835" y="318.06" style="fill: #237569; stroke: #237569"/>
     <use xlink:href="#me88e505b13" x="360" y="352.08" style="fill: #237569; stroke: #237569"/>
     <use xlink:href="#me88e505b13" x="360" y="293.76" style="fill: #237569; stroke: #237569"/>
     <use xlink:href="#me88e505b13" x="317.911165" y="269.46" style="fill: #237569; stroke: #237569"/>
     <use xlink:href="#me88e505b13" x="360" y="140.184" style="fill: #237569; stroke: #237569"/>
    </g>
   </g>
   <g id="line2d_13">
    <path d="M 360 202.392
L 456.80432 237.87
L 404.894757 319.68
L 360 410.4
L 360 293.76
L 275.822331 245.16
L 360 202.392
" clip-path="url(#p478c185e37)" style="fill: none; stroke-dasharray: 9.25,4; stroke-dashoffset: 0; stroke: #c26a40; stroke-width: 2.5"/>
    <defs>
     <path id="m6f8994831c" d="M -2.5 2.5
L 2.5 2.5
L 2.5 -2.5
L -2.5 -2.5
z
" style="stroke: #c26a40; stroke-linejoin: miter"/>
    </defs>
    <g clip-path="url(#p478c185e37)">
     <use xlink:href="#m6f8994831c" x="360" y="202.392" style="fill: #c26a40; stroke: #c26a40; stroke-linejoin: miter"/>
     <use xlink:href="#m6f8994831c" x="456.80432" y="237.87" style="fill: #c26a40; stroke: #c26a40; stroke-linejoin: miter"/>
     <use xlink:href="#m6f8994831c" x="404.894757" y="319.68" style="fill: #c26a40; stroke: #c26a40; stroke-linejoin: miter"/>
     <use xlink:href="#m6f8994831c" x="360" y="410.4" style="fill: #c26a40; stroke: #c26a40; stroke-linejoin: miter"/>
     <use xlink:href="#m6f8994831c" x="360" y="293.76" style="fill: #c26a40; stroke: #c26a40; stroke-linejoin: miter"/>
     <use xlink:href="#m6f8994831c" x="275.822331" y="245.16" style="fill: #c26a40; stroke: #c26a40; stroke-linejoin: miter"/>
     <use xlink:href="#m6f8994831c" x="360" y="202.392" style="fill: #c26a40; stroke: #c26a40; stroke-linejoin: miter"/>
    </g>
   </g>
   <g id="line2d_14">
    <path d="M 360 283.394592
L 361.119563 293.11362
L 405.641132 320.11092
L 360 340.416
L 359.43601 294.08562
L 298.828088 258.44238
L 360 283.394592
" clip-path="url(#p478c185e37)" style="fill: none; stroke-dasharray: 16,4,2.5,4; stroke-dashoffset: 0; stroke: #6374a4; stroke-width: 2.5"/>
    <defs>
     <path id="m4f4a45b79e" d="M 0 -2.5
L -2.5 2.5
L 2.5 2.5
z
" style="stroke: #6374a4; stroke-linejoin: miter"/>
    </defs>
    <g clip-path="url(#p478c185e37)">
     <use xlink:href="#m4f4a45b79e" x="360" y="283.394592" style="fill: #6374a4; stroke: #6374a4; stroke-linejoin: miter"/>
     <use xlink:href="#m4f4a45b79e" x="361.119563" y="293.11362" style="fill: #6374a4; stroke: #6374a4; stroke-linejoin: miter"/>
     <use xlink:href="#m4f4a45b79e" x="405.641132" y="320.11092" style="fill: #6374a4; stroke: #6374a4; stroke-linejoin: miter"/>
     <use xlink:href="#m4f4a45b79e" x="360" y="340.416" style="fill: #6374a4; stroke: #6374a4; stroke-linejoin: miter"/>
     <use xlink:href="#m4f4a45b79e" x="359.43601" y="294.08562" style="fill: #6374a4; stroke: #6374a4; stroke-linejoin: miter"/>
     <use xlink:href="#m4f4a45b79e" x="298.828088" y="258.44238" style="fill: #6374a4; stroke: #6374a4; stroke-linejoin: miter"/>
     <use xlink:href="#m4f4a45b79e" x="360" y="283.394592" style="fill: #6374a4; stroke: #6374a4; stroke-linejoin: miter"/>
    </g>
   </g>
   <g id="patch_6">
    <path d="M 360 99.36
C 334.471626 99.36 309.191483 104.388533 285.606341 114.157819
C 262.021198 123.927105 240.589728 138.247155 222.538442 156.298442
C 204.487155 174.349728 190.167105 195.781198 180.397819 219.366341
C 170.628533 242.951483 165.6 268.231626 165.6 293.76
C 165.6 319.288374 170.628533 344.568517 180.397819 368.153659
C 190.167105 391.738802 204.487155 413.170272 222.538442 431.221558
C 240.589728 449.272845 262.021198 463.592895 285.606341 473.362181
C 309.191483 483.131467 334.471626 488.16 360 488.16
C 385.528374 488.16 410.808517 483.131467 434.393659 473.362181
C 457.978802 463.592895 479.410272 449.272845 497.461558 431.221558
C 515.512845 413.170272 529.832895 391.738802 539.602181 368.153659
C 549.371467 344.568517 554.4 319.288374 554.4 293.76
C 554.4 268.231626 549.371467 242.951483 539.602181 219.366341
C 529.832895 195.781198 515.512845 174.349728 497.461558 156.298442
C 479.410272 138.247155 457.978802 123.927105 434.393659 114.157819
C 410.808517 104.388533 385.528374 99.36 360 99.36
" style="fill: none; stroke: #d3d8cd; stroke-width: 0.8; stroke-linejoin: miter; stroke-linecap: square"/>
   </g>
   <g id="text_6">
    <text style="font-size: 12px; font-family: 'DejaVu Sans', 'Bitstream Vera Sans', 'Computer Modern Sans Serif', 'Lucida Grande', 'Verdana', 'Geneva', 'Lucid', 'Arial', 'Helvetica', 'Avant Garde', sans-serif; fill: #242923" transform="translate(343.771875 74.568562)">Block</text>
    <text style="font-size: 12px; font-family: 'DejaVu Sans', 'Bitstream Vera Sans', 'Computer Modern Sans Serif', 'Lucida Grande', 'Verdana', 'Geneva', 'Lucid', 'Arial', 'Helvetica', 'Avant Garde', sans-serif; fill: #242923" transform="translate(320.56125 88.005937)">manipulation</text>
   </g>
   <g id="text_7">
    <text style="font-size: 12px; font-family: 'DejaVu Sans', 'Bitstream Vera Sans', 'Computer Modern Sans Serif', 'Lucida Grande', 'Verdana', 'Geneva', 'Lucid', 'Arial', 'Helvetica', 'Avant Garde', sans-serif; fill: #242923" transform="translate(546.874426 182.460562)">Symbolic</text>
    <text style="font-size: 12px; font-family: 'DejaVu Sans', 'Bitstream Vera Sans', 'Computer Modern Sans Serif', 'Lucida Grande', 'Verdana', 'Geneva', 'Lucid', 'Arial', 'Helvetica', 'Avant Garde', sans-serif; fill: #242923" transform="translate(546.874426 195.897937)">tasks</text>
   </g>
   <g id="text_8">
    <text style="font-size: 12px; font-family: 'DejaVu Sans', 'Bitstream Vera Sans', 'Computer Modern Sans Serif', 'Lucida Grande', 'Verdana', 'Geneva', 'Lucid', 'Arial', 'Helvetica', 'Avant Garde', sans-serif; fill: #242923" transform="translate(546.874426 398.244562)">Object</text>
    <text style="font-size: 12px; font-family: 'DejaVu Sans', 'Bitstream Vera Sans', 'Computer Modern Sans Serif', 'Lucida Grande', 'Verdana', 'Geneva', 'Lucid', 'Arial', 'Helvetica', 'Avant Garde', sans-serif; fill: #242923" transform="translate(546.874426 411.681937)">handling</text>
   </g>
   <g id="text_9">
    <text style="font-size: 12px; font-family: 'DejaVu Sans', 'Bitstream Vera Sans', 'Computer Modern Sans Serif', 'Lucida Grande', 'Verdana', 'Geneva', 'Lucid', 'Arial', 'Helvetica', 'Avant Garde', sans-serif; fill: #242923" transform="translate(344.3175 506.136563)">Cloth</text>
    <text style="font-size: 12px; font-family: 'DejaVu Sans', 'Bitstream Vera Sans', 'Computer Modern Sans Serif', 'Lucida Grande', 'Verdana', 'Geneva', 'Lucid', 'Arial', 'Helvetica', 'Avant Garde', sans-serif; fill: #242923" transform="translate(339.462188 519.573938)">folding</text>
   </g>
   <g id="text_10">
    <text style="font-size: 12px; font-family: 'DejaVu Sans', 'Bitstream Vera Sans', 'Computer Modern Sans Serif', 'Lucida Grande', 'Verdana', 'Geneva', 'Lucid', 'Arial', 'Helvetica', 'Avant Garde', sans-serif; fill: #242923" transform="translate(130.394324 398.244563)">Tools &amp;</text>
    <text style="font-size: 12px; font-family: 'DejaVu Sans', 'Bitstream Vera Sans', 'Computer Modern Sans Serif', 'Lucida Grande', 'Verdana', 'Geneva', 'Lucid', 'Arial', 'Helvetica', 'Avant Garde', sans-serif; fill: #242923" transform="translate(120.633074 411.681938)">insertion</text>
   </g>
   <g id="text_11">
    <text style="font-size: 12px; font-family: 'DejaVu Sans', 'Bitstream Vera Sans', 'Computer Modern Sans Serif', 'Lucida Grande', 'Verdana', 'Geneva', 'Lucid', 'Arial', 'Helvetica', 'Avant Garde', sans-serif; fill: #242923" transform="translate(135.546824 182.460562)">Shape</text>
    <text style="font-size: 12px; font-family: 'DejaVu Sans', 'Bitstream Vera Sans', 'Computer Modern Sans Serif', 'Lucida Grande', 'Verdana', 'Geneva', 'Lucid', 'Arial', 'Helvetica', 'Avant Garde', sans-serif; fill: #242923" transform="translate(94.248074 195.897937)">manipulation</text>
   </g>
  </g>
  <g id="text_12">
   <text style="font-size: 18px; font-family: 'DejaVu Sans', 'Bitstream Vera Sans', 'Computer Modern Sans Serif', 'Lucida Grande', 'Verdana', 'Geneva', 'Lucid', 'Arial', 'Helvetica', 'Avant Garde', sans-serif; text-anchor: middle; fill: #242923" x="360" y="32.037187" transform="rotate(-0 360 32.037187)">Success rate across six task categories</text>
  </g>
  <g id="text_13">
   <text style="font-size: 10px; font-family: 'DejaVu Sans', 'Bitstream Vera Sans', 'Computer Modern Sans Serif', 'Lucida Grande', 'Verdana', 'Geneva', 'Lucid', 'Arial', 'Helvetica', 'Avant Garde', sans-serif; text-anchor: middle; fill: #667060" x="360" y="584.46" transform="rotate(-0 360 584.46)">Same 18 task names · category means · separate evaluation protocols</text>
  </g>
  <g id="text_14">
   <a xlink:href="https://robodojo-benchmark.com/leaderboard">
    <text style="font-size: 9px; font-family: 'DejaVu Sans', 'Bitstream Vera Sans', 'Computer Modern Sans Serif', 'Lucida Grande', 'Verdana', 'Geneva', 'Lucid', 'Arial', 'Helvetica', 'Avant Garde', sans-serif; text-anchor: middle; fill: #667060" x="360" y="599.76" transform="rotate(-0 360 599.76)">π0.5 source: RoboDojo leaderboard · data 2026.9.20</text>
   </a>
  </g>
  <g id="legend_1">
   <g id="line2d_15">
    <path d="M 193.331094 556.182344
L 204.331094 556.182344
L 215.331094 556.182344
" style="fill: none; stroke: #237569; stroke-width: 2.5; stroke-linecap: square"/>
    <g>
     <use xlink:href="#me88e505b13" x="204.331094" y="556.182344" style="fill: #237569; stroke: #237569"/>
    </g>
   </g>
   <g id="text_15">
    <text style="font-size: 11px; font-family: 'DejaVu Sans', 'Bitstream Vera Sans', 'Computer Modern Sans Serif', 'Lucida Grande', 'Verdana', 'Geneva', 'Lucid', 'Arial', 'Helvetica', 'Avant Garde', sans-serif; text-anchor: start" x="224.131094" y="560.032344" transform="rotate(-0 224.131094 560.032344)">Astra</text>
   </g>
   <g id="line2d_16">
    <path d="M 270.561406 556.182344
L 281.561406 556.182344
L 292.561406 556.182344
" style="fill: none; stroke-dasharray: 9.25,4; stroke-dashoffset: 0; stroke: #c26a40; stroke-width: 2.5"/>
    <g>
     <use xlink:href="#m6f8994831c" x="281.561406" y="556.182344" style="fill: #c26a40; stroke: #c26a40; stroke-linejoin: miter"/>
    </g>
   </g>
   <g id="text_16">
    <text style="font-size: 11px; font-family: 'DejaVu Sans', 'Bitstream Vera Sans', 'Computer Modern Sans Serif', 'Lucida Grande', 'Verdana', 'Geneva', 'Lucid', 'Arial', 'Helvetica', 'Avant Garde', sans-serif; text-anchor: start" x="301.361406" y="560.032344" transform="rotate(-0 301.361406 560.032344)">Fable 5.1</text>
   </g>
   <g id="line2d_17">
    <path d="M 368.822344 556.182344
L 379.822344 556.182344
L 390.822344 556.182344
" style="fill: none; stroke-dasharray: 16,4,2.5,4; stroke-dashoffset: 0; stroke: #6374a4; stroke-width: 2.5"/>
    <g>
     <use xlink:href="#m4f4a45b79e" x="379.822344" y="556.182344" style="fill: #6374a4; stroke: #6374a4; stroke-linejoin: miter"/>
    </g>
   </g>
   <g id="text_17">
    <text style="font-size: 11px; font-family: 'DejaVu Sans', 'Bitstream Vera Sans', 'Computer Modern Sans Serif', 'Lucida Grande', 'Verdana', 'Geneva', 'Lucid', 'Arial', 'Helvetica', 'Avant Garde', sans-serif; text-anchor: start" x="399.622344" y="560.032344" transform="rotate(-0 399.622344 560.032344)">π0.5 · official reference</text>
   </g>
  </g>
 </g>
 <defs>
  <clipPath id="p478c185e37">
   <path d="M 554.4 293.76
C 554.4 268.231626 549.371467 242.951483 539.602181 219.366341
C 529.832895 195.781198 515.512845 174.349728 497.461558 156.298442
C 479.410272 138.247155 457.978802 123.927105 434.393659 114.157819
C 410.808517 104.388533 385.528374 99.36 360 99.36
C 334.471626 99.36 309.191483 104.388533 285.606341 114.157819
C 262.021198 123.927105 240.589728 138.247155 222.538442 156.298442
C 204.487155 174.349728 190.167105 195.781198 180.397819 219.366341
C 170.628533 242.951483 165.6 268.231626 165.6 293.76
C 165.6 319.288374 170.628533 344.568517 180.397819 368.153659
C 190.167105 391.738802 204.487155 413.170272 222.538442 431.221558
C 240.589728 449.272845 262.021198 463.592895 285.606341 473.362181
C 309.191483 483.131467 334.471626 488.16 360 488.16
C 385.528374 488.16 410.808517 483.131467 434.393659 473.362181
C 457.978802 463.592895 479.410272 449.272845 497.461558 431.221558
C 515.512845 413.170272 529.832895 391.738802 539.602181 368.153659
C 549.371467 344.568517 554.4 319.288374 554.4 293.76
M 360 293.76
C 360 293.76 360 293.76 360 293.76
C 360 293.76 360 293.76 360 293.76
C 360 293.76 360 293.76 360 293.76
C 360 293.76 360 293.76 360 293.76
C 360 293.76 360 293.76 360 293.76
C 360 293.76 360 293.76 360 293.76
C 360 293.76 360 293.76 360 293.76
C 360 293.76 360 293.76 360 293.76
C 360 293.76 360 293.76 360 293.76
C 360 293.76 360 293.76 360 293.76
C 360 293.76 360 293.76 360 293.76
C 360 293.76 360 293.76 360 293.76
C 360 293.76 360 293.76 360 293.76
C 360 293.76 360 293.76 360 293.76
C 360 293.76 360 293.76 360 293.76
C 360 293.76 360 293.76 360 293.76
z
"/>
  </clipPath>
 </defs>
</svg>
